<mxfile host="www.draw.io" modified="2019-12-04T12:55:57.183Z" agent="Mozilla/5.0 (Windows NT 10.0; Win64; x64) AppleWebKit/537.36 (KHTML, like Gecko) Chrome/74.0.3729.108 Safari/537.36" etag="k9mxFsSuXtIEfjMwW4C1" version="12.3.6" type="github" pages="1">
  <diagram id="r472rDjAA9qSprmHRPRD" name="第 1 页">
    <mxGraphModel dx="1550" dy="787" grid="1" gridSize="10" guides="1" tooltips="1" connect="1" arrows="1" fold="1" page="1" pageScale="1" pageWidth="1169" pageHeight="1654" math="0" shadow="0">
      <root>
        <mxCell id="0"/>
        <mxCell id="1" parent="0"/>
        <mxCell id="GhXFJLf9_k68R1W_ulhU-19" value="" style="rounded=0;whiteSpace=wrap;html=1;fontSize=15;dashed=1;" vertex="1" parent="1">
          <mxGeometry x="70" y="240" width="850" height="460" as="geometry"/>
        </mxCell>
        <mxCell id="dZmA4iJcxUOx3Vsu7N3r-1" value="&lt;font style=&quot;font-size: 15px&quot;&gt;数据安全模块&lt;/font&gt;" style="rounded=0;whiteSpace=wrap;html=1;" parent="1" vertex="1">
          <mxGeometry x="320" y="480" width="180" height="60" as="geometry"/>
        </mxCell>
        <mxCell id="dZmA4iJcxUOx3Vsu7N3r-2" value="&lt;font style=&quot;font-size: 15px&quot;&gt;风控模块&lt;/font&gt;" style="rounded=0;whiteSpace=wrap;html=1;" parent="1" vertex="1">
          <mxGeometry x="500" y="480" width="180" height="60" as="geometry"/>
        </mxCell>
        <mxCell id="dZmA4iJcxUOx3Vsu7N3r-3" value="&lt;font style=&quot;font-size: 15px&quot;&gt;订单模块&lt;/font&gt;" style="rounded=0;whiteSpace=wrap;html=1;" parent="1" vertex="1">
          <mxGeometry x="320" y="400" width="120" height="80" as="geometry"/>
        </mxCell>
        <mxCell id="dZmA4iJcxUOx3Vsu7N3r-4" value="&lt;font style=&quot;font-size: 15px&quot;&gt;支付模块&lt;/font&gt;" style="rounded=0;whiteSpace=wrap;html=1;" parent="1" vertex="1">
          <mxGeometry x="440" y="400" width="120" height="80" as="geometry"/>
        </mxCell>
        <mxCell id="dZmA4iJcxUOx3Vsu7N3r-5" value="财务模块" style="rounded=0;whiteSpace=wrap;html=1;fontSize=15;" parent="1" vertex="1">
          <mxGeometry x="560" y="400" width="120" height="80" as="geometry"/>
        </mxCell>
        <mxCell id="dZmA4iJcxUOx3Vsu7N3r-7" value="&lt;font style=&quot;font-size: 19px;&quot;&gt;支付中心模块划分&lt;/font&gt;" style="text;html=1;strokeColor=none;fillColor=none;align=center;verticalAlign=middle;whiteSpace=wrap;rounded=0;dashed=1;fontSize=19;" parent="1" vertex="1">
          <mxGeometry x="390" y="270" width="200" height="20" as="geometry"/>
        </mxCell>
        <mxCell id="dZmA4iJcxUOx3Vsu7N3r-20" value="支付管理后台" style="rounded=0;whiteSpace=wrap;html=1;strokeColor=#000000;fontSize=15;" parent="1" vertex="1">
          <mxGeometry x="320" y="340" width="360" height="60" as="geometry"/>
        </mxCell>
        <mxCell id="GhXFJLf9_k68R1W_ulhU-1" value="2、数据加密传输功能" style="text;html=1;strokeColor=none;fillColor=none;align=center;verticalAlign=middle;whiteSpace=wrap;rounded=0;fontSize=15;" vertex="1" parent="1">
          <mxGeometry x="160" y="640" width="150" height="20" as="geometry"/>
        </mxCell>
        <mxCell id="GhXFJLf9_k68R1W_ulhU-2" value="1、发票管理功能" style="text;html=1;strokeColor=none;fillColor=none;align=center;verticalAlign=middle;whiteSpace=wrap;rounded=0;fontSize=15;" vertex="1" parent="1">
          <mxGeometry x="760" y="400" width="120" height="20" as="geometry"/>
        </mxCell>
        <mxCell id="GhXFJLf9_k68R1W_ulhU-3" value="2、交易凭证功能" style="text;html=1;strokeColor=none;fillColor=none;align=center;verticalAlign=middle;whiteSpace=wrap;rounded=0;fontSize=15;" vertex="1" parent="1">
          <mxGeometry x="760" y="422" width="120" height="20" as="geometry"/>
        </mxCell>
        <mxCell id="GhXFJLf9_k68R1W_ulhU-4" value="1、对账功能" style="text;html=1;strokeColor=none;fillColor=none;align=center;verticalAlign=middle;whiteSpace=wrap;rounded=0;fontSize=15;" vertex="1" parent="1">
          <mxGeometry x="720" y="570" width="100" height="20" as="geometry"/>
        </mxCell>
        <mxCell id="GhXFJLf9_k68R1W_ulhU-5" value="2、黑名单功能" style="text;html=1;strokeColor=none;fillColor=none;align=center;verticalAlign=middle;whiteSpace=wrap;rounded=0;fontSize=15;" vertex="1" parent="1">
          <mxGeometry x="722" y="590" width="110" height="20" as="geometry"/>
        </mxCell>
        <mxCell id="GhXFJLf9_k68R1W_ulhU-7" value="" style="endArrow=classic;html=1;fontSize=15;" edge="1" parent="1">
          <mxGeometry width="50" height="50" relative="1" as="geometry">
            <mxPoint x="711" y="590" as="sourcePoint"/>
            <mxPoint x="660" y="550" as="targetPoint"/>
          </mxGeometry>
        </mxCell>
        <mxCell id="GhXFJLf9_k68R1W_ulhU-8" value="" style="endArrow=classic;html=1;fontSize=15;" edge="1" parent="1">
          <mxGeometry width="50" height="50" relative="1" as="geometry">
            <mxPoint x="280" y="610" as="sourcePoint"/>
            <mxPoint x="360" y="550" as="targetPoint"/>
          </mxGeometry>
        </mxCell>
        <mxCell id="GhXFJLf9_k68R1W_ulhU-9" value="" style="endArrow=classic;html=1;fontSize=15;exitX=0;exitY=0.75;exitDx=0;exitDy=0;" edge="1" parent="1" source="GhXFJLf9_k68R1W_ulhU-2">
          <mxGeometry width="50" height="50" relative="1" as="geometry">
            <mxPoint x="740" y="490" as="sourcePoint"/>
            <mxPoint x="690" y="440" as="targetPoint"/>
          </mxGeometry>
        </mxCell>
        <mxCell id="GhXFJLf9_k68R1W_ulhU-10" value="订单生成、查询，取消、评价(保留)功能" style="text;html=1;strokeColor=none;fillColor=none;align=center;verticalAlign=middle;whiteSpace=wrap;rounded=0;fontSize=15;" vertex="1" parent="1">
          <mxGeometry x="100" y="370" width="140" height="20" as="geometry"/>
        </mxCell>
        <mxCell id="GhXFJLf9_k68R1W_ulhU-12" value="" style="endArrow=classic;html=1;fontSize=15;entryX=0;entryY=0.5;entryDx=0;entryDy=0;" edge="1" parent="1" target="dZmA4iJcxUOx3Vsu7N3r-3">
          <mxGeometry width="50" height="50" relative="1" as="geometry">
            <mxPoint x="240" y="390" as="sourcePoint"/>
            <mxPoint x="270" y="330" as="targetPoint"/>
          </mxGeometry>
        </mxCell>
        <mxCell id="GhXFJLf9_k68R1W_ulhU-13" value="1、支付方式管理" style="text;html=1;strokeColor=none;fillColor=none;align=center;verticalAlign=middle;whiteSpace=wrap;rounded=0;fontSize=15;" vertex="1" parent="1">
          <mxGeometry x="540" y="660" width="140" height="20" as="geometry"/>
        </mxCell>
        <mxCell id="GhXFJLf9_k68R1W_ulhU-14" value="" style="endArrow=classic;html=1;fontSize=15;dashed=1;" edge="1" parent="1">
          <mxGeometry width="50" height="50" relative="1" as="geometry">
            <mxPoint x="600" y="650" as="sourcePoint"/>
            <mxPoint x="515.5555555555557" y="458" as="targetPoint"/>
          </mxGeometry>
        </mxCell>
        <mxCell id="GhXFJLf9_k68R1W_ulhU-20" value="1、交易流水访问控制" style="text;html=1;strokeColor=none;fillColor=none;align=center;verticalAlign=middle;whiteSpace=wrap;rounded=0;fontSize=15;" vertex="1" parent="1">
          <mxGeometry x="160" y="620" width="150" height="20" as="geometry"/>
        </mxCell>
        <mxCell id="GhXFJLf9_k68R1W_ulhU-21" value="3、异常警报机制" style="text;html=1;strokeColor=none;fillColor=none;align=center;verticalAlign=middle;whiteSpace=wrap;rounded=0;fontSize=15;" vertex="1" parent="1">
          <mxGeometry x="722" y="610" width="128" height="20" as="geometry"/>
        </mxCell>
      </root>
    </mxGraphModel>
  </diagram>
</mxfile>
